PathFileType	3	(X/Y/Z)	C:\Users\koon_\Desktop\
DataRate	CameraRate	NumFrames	NumMarkers	Units	OrigDataRate	OrigDataStartFrame	OrigNumFrames
100.0	100.0	7	27	mm	100.0	1698	4526	
Frame#	Time	GM:LFHD			GM:RFHD			GM:LBHD			GM:RBHD			GM:C7			GM:T10			GM:CLAV			GM:STRN			GM:RBAK			GM:LSHO			GM:LUPA			GM:LELB			GM:LFRA			GM:LWRA			GM:LWRB			GM:LFIN			GM:RSHO			GM:RUPA			GM:RELB			GM:RFRA			GM:RWRA			GM:RWRB			GM:RFIN			GM:LASI			GM:RASI			GM:LPSI			GM:RPSI			
		X1	Y1	Z1	X2	Y2	Z2	X3	Y3	Z3	X4	Y4	Z4	X5	Y5	Z5	X6	Y6	Z6	X7	Y7	Z7	X8	Y8	Z8	X9	Y9	Z9	X10	Y10	Z10	X11	Y11	Z11	X12	Y12	Z12	X13	Y13	Z13	X14	Y14	Z14	X15	Y15	Z15	X16	Y16	Z16	X17	Y17	Z17	X18	Y18	Z18	X19	Y19	Z19	X20	Y20	Z20	X21	Y21	Z21	X22	Y22	Z22	X23	Y23	Z23	X24	Y24	Z24	X25	Y25	Z25	X26	Y26	Z26	X27	Y27	Z27	
1698	16.97	74.828056	1591.9399	-61.498859	-78.615349	1576.7778	-64.964066	77.985321	1594.1864	-194.79175	-84.625397	1579.4541	-181.08589	-0.97097611	1417.0522	-265.96457	-6.3125505	1214.0593	-297.87189	13.047065	1363.2289	-111.9617	14.663576	1221.3398	-51.757286	-100.39446	1303.3119	-302.00714	150.77992	1396.1654	-231.59036	246.60454	1394.5553	-210.57668	409.03561	1363.2922	-99.801079	320.05209	1471.1643	-130.54492	290.37119	1536.5037	-137.72728	313.36694	1561.7065	-81.727257	276.11081	1628.8555	-147.05051	-179.32886	1397.4335	-160.12688	-243.83075	1162.4696	-152.59099	-276.54092	1079.26	-197.01765	-243.60625	1024.4794	-129.21678	-232.10033	895.96643	-99.474091	-261.56064	873.75995	-149.04805	-257.43307	814.46448	-79.734764	137.62202	900.81268	-81.105934	-156.0126	907.91943	-75.892159	64.781242	946.94061	-290.08878	-97.445755	933.57208	-287.79016
1699	16.98	75.195595	1591.9913	-60.871319	-78.320023	1577.3691	-65.26384	78.329453	1594.0076	-195.0739	-84.315979	1579.7499	-181.22374	-1.1155094	1417.0106	-266.02911	-6.280189	1214.0157	-297.75861	12.986207	1363.3837	-111.96342	14.533206	1221.4342	-51.818554	-100.39341	1303.2599	-302.00977	150.38321	1396.553	-231.94159	246.08252	1396.0811	-211.35536	409.15616	1367.0948	-100.77465	321.51184	1477.6244	-127.66816	292.61951	1543.4084	-132.63249	316.6554	1566.6234	-75.989273	280.4386	1636.389	-139.31999	-179.42909	1397.463	-160.21577	-243.92328	1162.4725	-152.6389	-276.61365	1079.2533	-197.08684	-243.77011	1024.5176	-129.18385	-232.26501	896.03088	-99.444801	-261.74969	873.80963	-149.02899	-257.60309	814.5412	-79.669189	137.56477	900.75055	-80.928444	-156.16956	907.96008	-75.861885	64.589561	946.93884	-289.99646	-97.58786	933.6532	-287.66559
1700	16.99	75.665497	1591.7245	-62.494881	-78.061539	1577.8363	-65.321083	78.71431	1593.837	-195.29437	-83.975456	1580.109	-181.29729	-1.2681172	1416.9833	-266.06085	-6.2859926	1213.9907	-297.75143	12.912635	1363.5195	-111.9659	14.417516	1221.5835	-51.787872	-100.37561	1303.1487	-302.03745	149.91499	1396.9175	-232.21545	245.41595	1397.7184	-212.3024	409.1178	1371.4335	-101.82837	322.58569	1484.3668	-124.95038	294.56573	1550.4324	-127.90662	319.7529	1571.7673	-70.723289	284.31903	1644.0802	-131.70544	-179.48299	1397.4281	-160.32695	-244.06674	1162.4958	-152.69884	-276.74194	1079.2799	-197.25768	-244.00388	1024.5002	-129.27136	-232.42372	896.0235	-99.44973	-261.89319	873.84991	-149.01018	-257.77399	814.55688	-79.694656	137.31364	900.83331	-80.849854	-156.36722	907.97131	-75.84037	64.513931	946.9538	-289.89014	-97.677559	933.70868	-287.5206
1701	17	76.178123	1591.6139	-62.757851	-77.504044	1578.2059	-65.372032	79.044891	1593.6376	-195.51202	-83.700012	1580.4614	-181.40559	-1.4081881	1416.9382	-266.09134	-6.2296	1213.9352	-297.69659	12.737379	1363.6288	-111.97639	14.166396	1221.689	-52.111561	-100.40198	1303.0746	-302.05008	149.38733	1397.3843	-232.53073	244.50917	1399.7039	-213.26826	408.99741	1376.3126	-102.88959	323.3754	1491.0945	-122.32413	296.48016	1557.79	-123.32718	322.81021	1577.2844	-65.960503	288.42865	1652.0021	-124.00272	-179.58339	1397.3928	-160.42117	-244.21738	1162.4646	-152.7962	-276.84903	1079.2635	-197.35869	-244.15729	1024.4999	-129.33713	-232.65044	896.02985	-99.497116	-262.04102	873.83374	-149.07884	-258.0174	814.5174	-79.661102	137.13509	900.87347	-80.632439	-156.54889	907.97424	-75.82473	64.479797	947.02362	-289.73618	-97.775208	933.7796	-287.45889
1702	17.01	76.693596	1591.4283	-63.019135	-77.012802	1578.5616	-65.428703	79.402153	1593.4117	-195.69681	-83.368156	1580.8226	-181.40012	-1.536238	1416.9291	-266.13681	-6.2374783	1213.8916	-297.57953	12.631422	1363.7609	-112.03432	14.172932	1221.8138	-51.902893	-100.40771	1302.9949	-302.03909	148.79826	1397.8207	-232.84909	243.55261	1401.6803	-213.79459	408.78784	1381.5092	-103.97787	324.17429	1497.986	-119.87104	298.5423	1565.4044	-119.30839	325.69235	1582.9978	-61.810097	291.65308	1660.1359	-116.72758	-179.68605	1397.323	-160.47713	-244.36671	1162.417	-152.9391	-276.92477	1079.1847	-197.46782	-244.37936	1024.4382	-129.41956	-232.86629	895.93573	-99.518463	-262.13138	873.55554	-149.29396	-258.18384	814.42261	-79.774925	136.96019	900.93359	-80.38208	-156.80606	907.92609	-75.784012	64.359299	947.16803	-290.01807	-97.849419	933.7821	-287.3577
1703	17.02	77.204361	1591.225	-63.242538	-76.509026	1578.8672	-65.330132	79.746002	1593.2358	-195.86877	-83.072281	1581.1555	-181.33688	-1.6754189	1416.8839	-266.18524	-6.1565781	1213.8452	-297.58066	12.455795	1363.8416	-112.01963	14.173464	1222.0057	-51.728279	-100.37729	1302.8806	-302.0383	148.15868	1398.3888	-233.17563	242.46684	1403.8464	-214.70198	408.39673	1387.0208	-105.19557	324.94254	1505.2681	-117.7795	300.53958	1573.1309	-115.63701	328.49155	1588.9803	-58.082973	294.20404	1668.557	-109.25696	-179.81688	1397.2584	-160.56049	-244.49231	1162.3751	-153.10201	-277.04404	1079.144	-197.62659	-244.52559	1024.4088	-129.42206	-233.03783	895.86853	-99.591629	-262.3306	873.63312	-149.32895	-258.42194	814.34973	-79.908112	136.74998	901.02814	-80.150795	-156.94154	907.96075	-75.766548	64.359505	947.23883	-289.82309	-97.862473	933.79089	-287.30133
1704	17.03	77.763344	1591.0001	-63.282028	-75.959808	1579.1146	-65.214577	80.081818	1593.0363	-196.01547	-82.734039	1581.5277	-181.26746	-1.8424774	1416.8463	-266.15448	-6.0512342	1213.8269	-297.46927	12.303868	1363.9583	-111.99807	13.996098	1222.1403	-52.031982	-100.35217	1302.8199	-302.12485	147.42073	1398.9264	-233.55864	241.21584	1406.0944	-215.54095	407.90753	1392.7635	-106.39575	325.68356	1512.7355	-115.95697	302.4133	1580.9862	-112.09167	331.13757	1595.0781	-54.796478	296.22534	1677.2925	-102.0154	-179.95506	1397.1738	-160.69803	-244.6088	1162.3228	-153.19745	-277.08359	1079.0322	-197.71701	-244.68704	1024.3042	-129.59357	-233.23665	895.81744	-99.746399	-262.44705	873.59186	-149.43338	-258.62692	814.22363	-80.019005	136.56911	901.09375	-79.888077	-157.19839	907.91998	-75.839005	64.411583	947.26709	-289.58908	-97.874062	933.85907	-287.2532
